<?xml version="1.0" encoding="UTF-8" standalone="no"?>
<svg
   xmlns:dc="http://purl.org/dc/elements/1.1/"
   xmlns:cc="http://creativecommons.org/ns#"
   xmlns:rdf="http://www.w3.org/1999/02/22-rdf-syntax-ns#"
   xmlns:svg="http://www.w3.org/2000/svg"
   xmlns="http://www.w3.org/2000/svg"
   xmlns:sodipodi="http://sodipodi.sourceforge.net/DTD/sodipodi-0.dtd"
   xmlns:inkscape="http://www.inkscape.org/namespaces/inkscape"
   inkscape:version="1.0 (4035a4f, 2020-05-01)"
   sodipodi:docname="DemokratischerWiderstand-Logo.svg"
   viewBox="0 0 784.91333 190.48187"
   id="svg844"
   height="190.48187"
   width="784.91333"
   version="1.1">
  <metadata
     id="metadata850">
    <rdf:RDF>
      <cc:Work
         rdf:about="">
        <dc:format>image/svg+xml</dc:format>
        <dc:type
           rdf:resource="http://purl.org/dc/dcmitype/StillImage" />
        <dc:title></dc:title>
      </cc:Work>
    </rdf:RDF>
  </metadata>
  <defs
     id="defs848" />
  <sodipodi:namedview
     inkscape:current-layer="svg844"
     inkscape:window-maximized="0"
     inkscape:window-y="23"
     inkscape:window-x="49"
     inkscape:cy="95.025475"
     inkscape:cx="580.12839"
     inkscape:zoom="1.0261813"
     showgrid="false"
     id="namedview846"
     inkscape:window-height="1127"
     inkscape:window-width="1871"
     inkscape:pageshadow="2"
     inkscape:pageopacity="0"
     guidetolerance="10"
     gridtolerance="10"
     objecttolerance="10"
     borderopacity="1"
     bordercolor="#666666"
     pagecolor="#ffffff" />
  <path
     d="m 38.867462,83.886436 v -54.2891 h 11.3885 c 5.4493,0 9.7761,0.5511 12.9396,1.6328 3.388,1.0408 6.4698,2.8369 9.2455,5.3677 5.5922,5.1227 8.3883,11.8374 8.3883,20.1441 0,8.3474 -2.9186,15.0826 -8.7557,20.2461 -2.9185,2.592 -6.0004,4.3881 -9.2047,5.3881 -3.0001,1.0001 -7.2453,1.5103 -12.7559,1.5103 z m 8.1842,-7.6943 h 3.6941 c 3.6737,0 6.7351,-0.3878 9.1639,-1.1634 2.4491,-0.8163 4.6533,-2.1225 6.6126,-3.8982 4.0411,-3.6941 6.0616,-8.4903 6.0616,-14.3886 0,-5.9392 -2.0001,-10.7762 -5.9799,-14.4703 -3.5921,-3.3064 -8.8781,-4.9595 -15.8582,-4.9595 h -3.6941 z m 79.065098,-38.88 h -21.7565 v 13.0416 h 21.1238 v 7.6944 h -21.1238 v 18.144 h 21.7565 v 7.6943 H 96.176062 v -54.2891 h 29.940698 z m 13.9181,46.5743 11.4089,-58.3506 18.6338,42.1864 19.3073,-42.1864 10.266,58.3506 h -8.4087 l -5.2248,-32.7571 -16.0622,35.2471 -15.6133,-35.2879 -5.8371,32.7979 z m 73.4525,-27.3894 c 0,-7.6332 2.7961,-14.1846 8.4087,-19.6747 5.5717,-5.4902 12.2865,-8.2455 20.1033,-8.2455 7.7352,0 14.3682,2.7757 19.8992,8.3067 5.5514,5.5309 8.327,12.164 8.327,19.94 0,7.7964 -2.7961,14.4091 -8.3678,19.8584 -5.5922,5.4493 -12.3478,8.1842 -20.287,8.1842 -7.0005,0 -13.307,-2.4287 -18.8788,-7.2658 -6.1432,-5.3677 -9.2046,-12.4089 -9.2046,-21.1033 z m 8.2658,0.102 c 0,6.0004 2.0205,10.9395 6.0412,14.7969 4.0207,3.8778 8.6536,5.8167 13.8988,5.8167 5.6943,0 10.4905,-1.9798 14.4091,-5.9188 3.8982,-3.9798 5.8575,-8.8373 5.8575,-14.5519 0,-5.7759 -1.9389,-10.6333 -5.7963,-14.552 -3.8369,-3.939 -8.5923,-5.8983 -14.2662,-5.8983 -5.6534,0 -10.4088,1.9593 -14.307,5.8983 -3.8982,3.8982 -5.8371,8.6945 -5.8371,14.4091 z m 72.0034,-5.3473 21.1238,-21.6544 h 10.9394 l -24.5321,24.573 24.675,29.7161 h -10.9803 l -19.5318,-24.1443 -1.694,1.6735 v 22.4708 h -8.1842 v -54.2891 h 8.1842 z m 62.9416,9.5108 16.797,23.1239 h -10.0211 l -15.5111,-22.2258 h -1.4695 v 22.2258 h -8.1842 v -54.2891 h 9.5924 c 7.1638,0 12.3478,1.347 15.5316,4.0411 3.5309,3.0002 5.2861,6.98 5.2861,11.8987 0,3.837 -1.1021,7.1433 -3.3064,9.8986 -2.2042,2.7757 -5.1023,4.5513 -8.7148,5.3268 z m -10.2047,-6.2248 h 2.592 c 7.776,0 11.6538,-2.9594 11.6538,-8.8986 0,-5.5513 -3.7758,-8.327 -11.3273,-8.327 h -2.9185 z m 72.085,16.1642 h -23.2463 l -6.0412,13.1845 h -8.8169 l 26.8588,-57.6975 25.8996,57.6975 h -8.9597 z m -3.3471,-7.6943 -8.0414,-18.4706 -8.4291,18.4706 z m 41.752,-25.6955 v 46.5743 h -8.1842 v -46.5743 h -12.4701 v -7.7148 h 33.1041 v 7.7148 z m 33.001,-7.7148 v 54.2891 h -8.1842 v -54.2891 z m 48.757,8.1026 -6.6331,3.9186 c -1.2449,-2.143 -2.4287,-3.5513 -3.5512,-4.2044 -1.1633,-0.7551 -2.6736,-1.1225 -4.5309,-1.1225 -2.2654,0 -4.1635,0.6327 -5.6738,1.9185 -1.4899,1.2654 -2.2451,2.8573 -2.2451,4.7962 0,2.6328 1.9798,4.7758 5.9188,6.3882 l 5.4085,2.2246 c 4.4084,1.7756 7.6331,3.9594 9.6741,6.5106 2.0205,2.5716 3.041,5.7147 3.041,9.4496 0,5.0003 -1.6532,9.123 -4.9799,12.3681 -3.3676,3.2859 -7.5311,4.9187 -12.4906,4.9187 -4.7146,0 -8.5924,-1.3878 -11.6742,-4.1839 -3.0206,-2.7961 -4.8983,-6.7147 -5.6534,-11.7763 l 8.3066,-1.8164 c 0.3674,3.1838 1.0205,5.3881 1.9593,6.5922 1.694,2.3471 4.1431,3.5309 7.3882,3.5309 2.5512,0 4.6738,-0.8572 6.3678,-2.5716 1.694,-1.7144 2.5308,-3.8778 2.5308,-6.5107 0,-1.0408 -0.1429,-2.0205 -0.4491,-2.8981 -0.3061,-0.8776 -0.7551,-1.6736 -1.3674,-2.4287 -0.6327,-0.7348 -1.4286,-1.4287 -2.4083,-2.0818 -0.9797,-0.6327 -2.143,-1.245 -3.5104,-1.8368 l -5.2453,-2.1838 c -7.429,-3.1227 -11.1435,-7.7148 -11.1435,-13.7764 0,-4.0615 1.5511,-7.4699 4.6737,-10.2252 3.1227,-2.7552 7.0005,-4.1431 11.6334,-4.1431 6.2657,0 11.1436,3.041 14.654,9.1435 z m 56.4514,-5.184 v 9.7149 c -4.735,-3.9595 -9.6332,-5.9392 -14.6948,-5.9392 -5.5718,0 -10.2863,2.0001 -14.1029,6.0004 -3.837,3.9798 -5.7555,8.8577 -5.7555,14.6336 0,5.6942 1.9185,10.4904 5.7759,14.409 3.837,3.9186 8.5516,5.878 14.1233,5.878 2.8778,0 5.3269,-0.4695 7.3474,-1.4083 1.1226,-0.4694 2.2859,-1.1225 3.4901,-1.9185 1.2041,-0.796 2.4899,-1.7348 3.8165,-2.8573 v 9.8782 c -4.6737,2.6328 -9.5924,3.9594 -14.756,3.9594 -7.776,0 -14.3887,-2.7145 -19.8788,-8.123 -5.4493,-5.4493 -8.1842,-12.0415 -8.1842,-19.7563 0,-6.9188 2.2859,-13.0825 6.8576,-18.491 5.6126,-6.633 12.8987,-9.9394 21.8381,-9.9394 4.8778,0 9.572,1.3266 14.1233,3.9595 z m 25.0623,18.3276 h 23.4096 v -21.2462 h 8.2046 v 54.2891 h -8.2046 v -25.3485 h -23.4096 v 25.3485 h -8.1842 v -54.2891 h 8.1842 z m 79.5957,-13.5314 h -21.7565 v 13.0416 h 21.1238 v 7.6944 h -21.1238 v 18.144 h 21.7565 v 7.6943 h -29.9407 v -54.2891 h 29.9407 z m 34.2051,23.4504 16.797,23.1239 h -10.0211 l -15.5112,-22.2258 h -1.4694 v 22.2258 h -8.1842 v -54.2891 h 9.5924 c 7.1637,0 12.3477,1.347 15.5316,4.0411 3.5308,3.0002 5.286,6.98 5.286,11.8987 0,3.837 -1.1021,7.1433 -3.3063,9.8986 -2.2042,2.7757 -5.1024,4.5513 -8.7148,5.3268 z m -10.2047,-6.2248 h 2.592 c 7.776,0 11.6537,-2.9594 11.6537,-8.8986 0,-5.5513 -3.7757,-8.327 -11.3272,-8.327 h -2.9185 z"
     style="fill:#1a1a1a;fill-rule:evenodd"
     id="path833" />
  <path
     d="m 140.91816,106.92644 14.1233,36.288 14.7765,-38.9208 14.1233,38.9208 15.0213,-36.288 h 8.8782 l -24.2465,57.7384 -13.96,-38.4718 -14.552,38.5126 -23.0626,-57.7792 z m 105.984,54.2892 v -54.2892 h 11.3884 c 5.4494,0 9.7762,0.5511 12.9396,1.6328 3.388,1.0409 6.4698,2.8369 9.2455,5.3677 5.5922,5.1228 8.3883,11.8375 8.3883,20.1441 0,8.3475 -2.9185,15.0826 -8.7557,20.2462 -2.9185,2.592 -6.0003,4.388 -9.2046,5.3881 -3.0002,1 -7.2454,1.5103 -12.7559,1.5103 z m 8.1842,-7.6944 h 3.6941 c 3.6737,0 6.7351,-0.3878 9.1638,-1.1633 2.4492,-0.8164 4.6534,-2.1226 6.6127,-3.8982 4.041,-3.6941 6.0616,-8.4904 6.0616,-14.3887 0,-5.9391 -2.0001,-10.7762 -5.98,-14.4703 -3.592,-3.3063 -8.8781,-4.9595 -15.8581,-4.9595 h -3.6941 z m 79.065,-38.88 h -21.7564 v 13.0417 h 21.1237 v 7.6943 h -21.1237 v 18.144 h 21.7564 v 7.6944 h -29.9406 v -54.2892 h 29.9406 z m 34.2051,23.4505 16.797,23.1239 h -10.021 l -15.5112,-22.2259 h -1.4695 v 22.2259 h -8.1842 v -54.2892 h 9.5925 c 7.1637,0 12.3477,1.3471 15.5316,4.0411 3.5308,3.0002 5.286,6.98 5.286,11.8987 0,3.837 -1.1021,7.1433 -3.3063,9.8986 -2.2042,2.7757 -5.1024,4.5513 -8.7149,5.3269 z m -10.2047,-6.2249 h 2.592 c 7.776,0 11.6538,-2.9594 11.6538,-8.8985 0,-5.5514 -3.7757,-8.3271 -11.3272,-8.3271 h -2.9186 z m 70.8809,-16.8378 -6.6331,3.9186 c -1.245,-2.143 -2.4287,-3.5512 -3.5512,-4.2043 -1.1634,-0.7552 -2.6737,-1.1226 -4.5309,-1.1226 -2.2655,0 -4.1635,0.6327 -5.6738,1.9185 -1.4899,1.2654 -2.2451,2.8574 -2.2451,4.7963 0,2.6328 1.9797,4.7758 5.9188,6.3881 l 5.4085,2.2246 c 4.4084,1.7757 7.6331,3.9595 9.674,6.5107 2.0206,2.5715 3.041,5.7146 3.041,9.4495 0,5.0003 -1.6531,9.1231 -4.9799,12.3682 -3.3675,3.2859 -7.531,4.9186 -12.4905,4.9186 -4.7146,0 -8.5924,-1.3878 -11.6742,-4.1839 -3.0206,-2.7961 -4.8983,-6.7147 -5.6535,-11.7763 l 8.3067,-1.8164 c 0.3674,3.1839 1.0205,5.3881 1.9593,6.5923 1.694,2.347 4.1431,3.5308 7.3882,3.5308 2.5512,0 4.6738,-0.8572 6.3678,-2.5716 1.6939,-1.7144 2.5307,-3.8778 2.5307,-6.5106 0,-1.0409 -0.1428,-2.0206 -0.449,-2.8982 -0.3061,-0.8776 -0.7551,-1.6735 -1.3674,-2.4287 -0.6327,-0.7347 -1.4287,-1.4286 -2.4083,-2.0817 -0.9797,-0.6327 -2.143,-1.245 -3.5105,-1.8369 l -5.2452,-2.1838 c -7.429,-3.1227 -11.1435,-7.7148 -11.1435,-13.7764 0,-4.0615 1.5511,-7.4698 4.6737,-10.2251 3.1227,-2.7553 7.0005,-4.1431 11.6334,-4.1431 6.2657,0 11.1436,3.041 14.654,9.1434 z m 32.322,-0.3878 v 46.5744 h -8.1841 v -46.5744 h -12.4702 v -7.7148 h 33.1041 v 7.7148 z m 53.7733,33.3899 h -23.2464 l -6.0412,13.1845 h -8.8169 l 26.8589,-57.6975 25.8996,57.6975 h -8.9598 z m -3.3472,-7.6944 -8.0413,-18.4705 -8.4291,18.4705 z m 29.8375,20.8789 v -57.9629 l 39.5739,41.4108 v -37.7371 h 8.2046 v 57.5955 l -39.5943,-41.3087 v 38.0024 z m 65.8193,0 v -54.2892 h 11.3885 c 5.4493,0 9.7761,0.5511 12.9396,1.6328 3.388,1.0409 6.4698,2.8369 9.2455,5.3677 5.5922,5.1228 8.3883,11.8375 8.3883,20.1441 0,8.3475 -2.9186,15.0826 -8.7557,20.2462 -2.9185,2.592 -6.0004,4.388 -9.2046,5.3881 -3.0002,1 -7.2454,1.5103 -12.756,1.5103 z m 8.1842,-7.6944 h 3.6941 c 3.6737,0 6.7352,-0.3878 9.1639,-1.1633 2.4491,-0.8164 4.6533,-2.1226 6.6126,-3.8982 4.0411,-3.6941 6.0616,-8.4904 6.0616,-14.3887 0,-5.9391 -2.0001,-10.7762 -5.9799,-14.4703 -3.5921,-3.3063 -8.8781,-4.9595 -15.8582,-4.9595 h -3.6941 z"
     style="fill:#1a1a1a;fill-rule:evenodd"
     id="path835" />
  <path
     d="m 0.01016249,184.60594 784.48899751,2.126"
     style="fill:#1a1a1a;stroke:#1b1918;stroke-width:7.4999;stroke-linecap:butt;stroke-linejoin:miter;stroke-dasharray:none"
     id="path837" />
  <path
     d="m 0.01016249,3.7499362 784.89299751,2.126"
     style="fill:#1a1a1a;stroke:#1b1918;stroke-width:7.4999;stroke-linecap:butt;stroke-linejoin:miter;stroke-dasharray:none"
     id="path839" />
  <path
     d="m 224.55856,160.42024 0.2729,-0.2708 h 1.0918 l 0.273,0.2708 c 0.4631,0.3555 0.3639,0.1016 0.4714,0.7447 l -2.3655,0.0847 c 0,-1.3541 0.0413,-0.4739 0.2564,-0.8294 z m -11.1248,2.1665 h 27.0386 v -1.0325 c -1.5219,0.1016 -3.6228,0.237 -4.1853,-0.3893 -0.8023,0.1016 -0.703,-0.0846 -0.9098,-0.7277 -0.397,0 -0.2895,0.1015 -0.2564,-0.3385 l 0.008,-1.3202 -0.273,-0.2708 -0.0248,-0.4909 -0.273,-0.2708 c -0.0413,-0.7278 -0.1075,-0.7447 -0.2646,-1.3371 -0.3805,0 -0.2978,0.1016 -0.2813,-0.2708 l 0.0166,-0.3046 -0.008,-0.5247 -0.2647,-0.2877 0.0166,-0.8125 -0.2812,-0.2877 c -0.091,-1.2017 -0.4467,-1.2525 -0.5211,-2.4203 l -0.2812,-0.2877 c -0.1407,-1.4895 -0.6948,-1.1679 -0.8106,-2.7081 l -0.2564,-0.2539 -0.0248,-1.3371 -0.2647,-0.2708 -0.008,-1.3371 c -0.3805,0 -0.2812,0.1016 -0.2647,-0.3046 v -0.7786 l -0.2729,-0.2708 c 0,-2.1665 0,-4.3329 0,-6.4824 0,-0.9478 -0.091,-2.3865 -0.008,-3.2666 0.1241,-1.4556 0.7361,-1.1002 2.1588,-1.0494 l 0.2729,0.2708 2.1423,2.1665 0.2647,0.2708 c 1.4309,0.2708 0.7526,0.3216 2.2001,-0.017 l 0.2647,-0.2708 0.0165,-1.5571 c -0.008,-0.4231 -0.1158,-0.3216 0.2647,-0.3216 l 0.0165,-1.2863 c -0.033,-0.4401 -0.1488,-0.3554 0.2482,-0.3554 l 0.008,-2.0818 0.2977,-0.5586 -0.0331,-2.1495 c -0.0496,-0.457 -0.1654,-0.3724 0.2564,-0.3724 v -1.5571 c -0.3887,0 -0.2977,0.1016 -0.2812,-0.2877 l -0.5211,-1.6418 -0.2729,-0.2708 c -0.1489,-0.6093 -0.3143,-0.9478 -0.5211,-1.3709 l -0.273,-0.2708 -0.008,-0.2539 -0.273,-0.2708 c -0.4632,-0.8463 -0.7857,-1.371 -1.373,-2.1157 l -0.5211,-0.5755 c -0.3805,-0.5754 -0.5459,-0.9139 -1.0835,-1.354 l -0.2647,-0.2708 c -0.7609,-0.5077 -1.4061,-1.0663 -2.2498,-1.5402 -1.1,-0.5924 -1.7286,-0.5585 -2.0678,-1.7433 v -0.1862 l -0.008,-0.3046 c 0,-0.3893 -0.091,-0.2708 0.3225,-0.2539 1.2159,-0.1354 0.9264,-0.4909 1.8363,-1.1002 l 0.0165,-0.8462 -0.2647,-0.2708 0.008,-0.5924 c -0.1902,-0.1016 -0.8106,-0.4909 -0.0331,-0.4909 l 0.0331,-0.2538 -0.2895,-0.3047 0.0248,-0.2539 c -0.9512,-0.457 -0.3391,0.1016 -0.8767,-0.7616 -0.5377,-0.3047 -0.8189,-0.3047 -1.3482,-0.5416 l -0.5211,-0.5416 c -2.5889,-1.8449 -3.6973,0.7278 -5.1613,1.5909 l -0.2481,0.2539 c 0,0.3893 0.0993,0.2878 -0.2812,0.2878 0.0413,1.5402 -0.7031,2.1664 0.1241,3.3004 0.885,0.4401 0.9511,0.5924 1.6542,1.2186 1.0008,0.3555 0.7858,0.4232 1.2159,1.2017 0.0661,0.0339 0.8602,0.5078 0,0.5078 -0.3474,0.4062 -0.1407,0.2877 -0.7362,0.6262 -0.3474,0.2031 -0.612,0.2878 -0.9015,0.4232 l -0.2813,0.3046 -0.2729,-0.0169 -0.2647,0.2708 c -0.6948,0.5416 -0.5872,0.5924 -1.5881,0.8293 l -0.2729,-0.2708 -0.0166,-0.2539 -0.2646,-0.2538 0.008,-0.5755 -0.2646,-0.2708 0.0579,-0.7447 c 0.4135,-0.1693 0.4301,-0.1354 0.7196,-0.3554 0.5045,-0.4063 0.3308,-0.1693 0.5872,-0.7955 l -0.2812,-0.2878 -0.2812,-0.2538 c 0,0.4062 0.0827,0.2708 -0.3888,0.2538 l -1.5136,0.017 c 0,0.0169 -0.4053,0.8462 -0.4963,-0.0339 l -0.0248,-0.7616 -0.2729,-0.2708 c -0.0166,-1.1171 -0.1572,-0.9479 -0.273,-1.8957 -0.3805,0 -0.2729,0.0846 -0.2564,-0.3385 -0.0414,-0.9647 -0.2895,-1.3879 -0.5376,-2.1326 l -0.2647,-0.2708 c -0.1323,-1.0832 -0.0414,-0.5077 -0.5376,-1.3202 l -0.2813,-0.2708 h -0.5624 l -0.2729,0.2708 0.0248,0.5417 0.2646,0.2538 -0.008,0.8294 0.2729,0.2708 0.2647,1.6417 0.2729,0.2708 -0.008,0.5417 0.2729,0.2877 0.2647,1.8956 0.2564,0.3047 0.0166,0.4739 v 0.2539 0.2708 0.2877 c 0.6203,1.2017 0.2729,2.9789 -0.2647,4.0282 l -0.273,0.2708 0.0166,1.3541 c 0.3804,0 0.2812,-0.0847 0.2564,0.3046 l 0.008,0.7955 0.2565,0.2877 c 0.2233,1.0663 0.4383,0.7109 0.5459,1.8788 0.397,0 0.2729,-0.0847 0.2646,0.3554 l -0.2646,3.0973 c 0.0496,0.4401 0.1654,0.3555 -0.2565,0.3555 l -0.0165,0.7616 -0.2729,0.2708 0.008,0.7955 -0.2647,0.3046 -0.008,0.474 -0.2895,0.3046 0.0331,0.8971 0.4797,0.22 0.306,0.2877 1.5964,-0.2539 0.2977,0.694 c 0.0579,0.457 0.182,0.3723 -0.2481,0.3723 v 1.8787 l -0.2564,0.2708 -0.0744,1.2017 -0.2316,0.3555 0.033,1.1848 -0.3225,0.44 0.0496,2.7758 -0.273,0.2708 -0.0165,1.591 0.0165,0.3046 c 0.0249,0.3724 0.1076,0.2708 -0.2729,0.2708 l -0.306,4.4514 c 0.033,0.457 0.1571,0.3723 -0.2482,0.3723 l -0.0331,1.2187 c 0.0249,0.4739 0.1572,0.3892 -0.2398,0.3892 l -0.0166,2.3527 -0.2233,0.4569 -0.0331,1.7772 -0.2647,0.2877 -0.0165,2.1496 -0.2647,0.2538 0.5873,0.8125 2.8039,0.0677 c 0.4715,-0.0339 0.3888,-0.1693 0.3888,0.2369 l 0.8105,0.2708 0.2813,0.2877 c -0.0248,0.7109 -0.091,0.9986 -0.2895,1.5741 -0.3226,0.9647 -0.1158,0.8632 -1.0753,1.0832 -0.4797,0.677 -2.7791,0.2878 -3.7634,0.2539 -0.9512,-0.0508 -2.0182,-0.0169 -3.0355,0.0169 z m 18.7425,-2.1665 0.2482,0.237 -0.0166,0.3046 -0.2646,0.2709 -0.5459,-0.2032 z m 1.8693,-29.924 -0.6203,0.457 c -1.2159,0.0339 -1.7866,0.1354 -2.6551,-0.2369 l -0.2729,-0.2031 c 0.008,-0.457 -0.1241,-0.3724 0.2812,-0.3724 l 0.273,-0.7955 0.2646,-0.2708 h 0.8023 l 0.2895,-0.5247 0.273,-0.2708 0.5459,-0.2708 0.2812,-0.2708 0.3805,-0.22 c 0.4632,-0.0169 0.3722,-0.1523 0.397,0.2539 l 0.0331,0.5246 c 0.0248,0.3724 0.1075,0.2878 -0.2812,0.2878 z m -14.8551,-9.2243 0.2068,-0.0169 c 0.3722,0.3385 0.3143,-0.5924 0.3143,0.8124 h -0.2729 c -0.273,-0.3046 -0.2978,0.4909 -0.2482,-0.7955 z m 3.8462,-11.9831 c 0,-0.0508 -0.0579,0.1015 -0.0828,0.0677 z"
     style="fill:#1a1a1a;fill-rule:evenodd"
     id="path841" />
</svg>
